<svg xmlns="http://www.w3.org/2000/svg" xmlns:xlink="http://www.w3.org/1999/xlink" width="1920" zoomAndPan="magnify" viewBox="0 0 1440 809.999993" height="1080" preserveAspectRatio="xMidYMid meet" version="1.0"><defs><clipPath id="9c48dee5d8"><path d="M 338.265625 213 L 1101 213 L 1101 595 L 338.265625 595 Z M 338.265625 213 " clip-rule="nonzero"/></clipPath></defs><g clip-path="url(#9c48dee5d8)"><path fill="#000000" d="M 1097.570312 414.238281 C 1092.09375 382.621094 1075.890625 353.648438 1070.40625 321.917969 C 1067.472656 307.035156 1067.5 291.820312 1068.925781 276.765625 C 1070.070312 259.5625 1071.953125 235.382812 1060.132812 221.492188 C 1055.160156 215.695312 1047.257812 212.742188 1039.707031 214.046875 C 1016.386719 218.242188 1009.046875 242.917969 1006.957031 263.511719 C 1003.277344 296.238281 1014.800781 321.214844 1027.640625 350.257812 C 1035.632812 368.601562 1045.597656 386.050781 1052.632812 404.816406 C 1056.859375 415.824219 1060.257812 427.339844 1062.332031 438.972656 C 1063.761719 447.113281 1065.074219 455.363281 1064.707031 463.652344 C 1064.039062 474.488281 1060.390625 485.652344 1054.046875 494.632812 C 1045.863281 450.074219 1012.042969 413.613281 970.226562 397.507812 C 967.371094 396.144531 964.523438 394.871094 961.679688 393.6875 C 969.585938 386.683594 971.394531 374.265625 972.269531 363.082031 C 973.15625 353.167969 972.824219 343.066406 975.265625 333.347656 C 976.203125 329.132812 978.789062 325.4375 979.195312 321.09375 C 979.792969 308.375 967.40625 306.308594 960.28125 315.390625 C 952.40625 324.207031 951.339844 335.585938 950.167969 346.816406 C 949.324219 351.917969 948.746094 364.710938 942.652344 365.972656 C 938.855469 365.601562 936.269531 362.214844 933.632812 359.792969 C 924.160156 349.621094 908.933594 344.492188 895.570312 349.355469 C 882.390625 354.789062 873.1875 367.992188 868.855469 381.292969 C 821.390625 386.503906 774.664062 406.082031 726.9375 422.394531 C 705.582031 429.914062 684.53125 438.007812 663.433594 445.980469 C 663.476562 445.703125 663.523438 445.425781 663.574219 445.144531 C 664.585938 438.953125 666.792969 432.460938 670.277344 427.101562 C 674.265625 420.304688 681.050781 415.660156 684.917969 408.800781 C 690.34375 398.003906 684.476562 389.59375 672.421875 392.78125 C 661.042969 395.308594 651.527344 403.804688 645.320312 413.460938 C 641.3125 419.953125 638.714844 427.089844 635.464844 433.976562 C 630.082031 445.785156 623.546875 455.5 615.082031 463.644531 C 610.230469 465.320312 605.367188 466.960938 600.480469 468.5625 C 590.125 472.082031 579.792969 474.519531 569.042969 476.75 C 559.011719 469.851562 548.175781 464.082031 536.671875 460.082031 C 509.953125 450.890625 480.097656 453.449219 453.8125 464.550781 C 450.042969 462.445312 446.25 460.386719 442.445312 458.351562 C 432.894531 453.203125 423.46875 447.820312 414.136719 442.285156 C 411.625 440.816406 409.113281 439.347656 406.550781 437.964844 C 405.421875 437.453125 404.257812 436.570312 402.960938 436.789062 C 399.816406 437.695312 402.367188 441.160156 403.160156 443.011719 C 405.242188 447.34375 407.410156 451.632812 409.570312 455.925781 C 414.101562 464.851562 418.425781 473.898438 423.300781 482.644531 C 414.453125 489.699219 406.613281 497.910156 400.226562 507.0625 C 395.050781 514.519531 388.90625 526.078125 384.617188 538.339844 C 375.679688 539.832031 366.742188 541.3125 357.804688 542.804688 C 352.082031 543.929688 346.089844 544.269531 340.59375 546.292969 C 339.304688 546.804688 338.261719 548.25 338.777344 549.65625 C 339.429688 551.296875 341.183594 552.097656 342.5625 553.046875 C 348.714844 556.832031 355.15625 560.140625 361.578125 563.445312 C 367.464844 566.472656 373.503906 569.324219 379.734375 571.625 C 379.777344 571.921875 379.824219 572.214844 379.878906 572.507812 C 380.839844 597.421875 407.300781 594.859375 426.03125 592.738281 C 428.234375 592.511719 430.4375 592.308594 432.644531 592.105469 C 611.59375 588.179688 790.617188 588.136719 969.613281 586.007812 C 983.246094 586.671875 996.863281 586.261719 1010.421875 583.796875 C 1036.976562 579.421875 1050.507812 556.175781 1054.566406 531.199219 C 1059.746094 528.320312 1064.546875 524.769531 1068.90625 520.746094 C 1080.058594 510.613281 1088.652344 497.703125 1093.472656 483.40625 C 1100.664062 461.222656 1101.765625 437.132812 1097.570312 414.238281 Z M 1097.570312 414.238281 " fill-opacity="1" fill-rule="nonzero"/></g><path fill="#ffffff" d="M 930.65625 543.871094 C 928.289062 544.199219 928.648438 540.386719 928.074219 538.90625 C 927.097656 534.28125 926.332031 529.53125 925.792969 524.867188 C 923.875 509.644531 923.355469 493.875 928.632812 479.25 C 929.796875 475.917969 931.34375 472.679688 933.273438 469.726562 C 938.238281 462.398438 947.007812 457.238281 955.96875 457.542969 C 959.6875 457.664062 963.546875 458.578125 966.875 460.125 C 968.410156 460.78125 969.808594 461.523438 971.378906 462.011719 C 976.054688 463.632812 980.144531 459.765625 981.734375 455.652344 C 983.941406 450.570312 983.792969 444.929688 984.605469 439.546875 C 985.125 436.042969 985.921875 432.488281 987.976562 429.53125 C 992.269531 423.390625 1000.914062 420.671875 1007.4375 424.867188 C 1012.789062 427.949219 1016.425781 436.394531 1011.558594 441.359375 C 1010.945312 441.964844 1010.039062 442.125 1009.457031 442.753906 C 1007.882812 445.117188 1007.257812 447.855469 1006.75 450.523438 C 1004.953125 462.4375 1009.613281 474.589844 1006.441406 486.378906 C 1005.550781 489.769531 1003.890625 493.140625 1001.109375 495.363281 C 997.707031 498.085938 992.949219 498.511719 988.863281 497.328125 C 988.425781 497.203125 988.046875 496.980469 987.796875 496.589844 C 986.929688 495.367188 988.171875 493.585938 989.613281 493.964844 C 993.394531 495.109375 997.957031 494.558594 1000.457031 491.214844 C 1008.539062 479.644531 1000.175781 461.597656 1003.640625 448.042969 C 1004.566406 444.882812 1005.339844 440.871094 1008.503906 439.222656 C 1011.703125 437.839844 1010.421875 432.726562 1008.675781 430.566406 C 1003.871094 423.90625 994.53125 425.457031 990.421875 432 C 987.429688 437.214844 987.859375 443.46875 986.945312 449.226562 C 986.007812 458.339844 979.792969 469.070312 969.226562 464.953125 C 964.953125 462.992188 960.472656 461.050781 955.714844 461.074219 C 948.636719 460.988281 941.835938 464.816406 937.386719 470.183594 C 926.441406 485.894531 927.023438 506.246094 929.039062 524.449219 C 929.574219 529.105469 930.304688 533.734375 931.234375 538.332031 C 931.355469 540.0625 932.960938 543.21875 930.65625 543.871094 Z M 930.65625 543.871094 " fill-opacity="1" fill-rule="nonzero"/><path fill="#ffffff" d="M 689.695312 526.144531 C 688.410156 525.15625 689.199219 523.78125 689.972656 522.761719 C 691.828125 519.867188 693.617188 516.9375 695.335938 513.964844 C 700.199219 505.207031 704.742188 495.949219 711.261719 488.410156 C 715.777344 482.878906 721.398438 478.496094 727.167969 474.359375 C 730.742188 471.648438 734.515625 468.980469 737.078125 465.226562 C 739.28125 461.671875 740.539062 455.890625 736.324219 453.3125 C 730.421875 450.542969 723.492188 452.859375 717.710938 454.828125 C 707.285156 458.605469 697.785156 464.265625 689.535156 471.621094 C 684.589844 475.839844 680.707031 481.027344 676.871094 486.214844 C 670.117188 495.234375 663.304688 504.292969 655.828125 512.664062 C 652.226562 516.597656 648.410156 520.339844 644.46875 523.925781 C 642.28125 525.894531 640.105469 527.882812 637.785156 529.695312 C 636.914062 530.34375 635.960938 531.101562 634.824219 531.070312 C 632.84375 530.972656 632.628906 528.0625 634.769531 528.011719 C 648.625 517.242188 659.863281 503.753906 670.171875 489.683594 C 674.464844 483.984375 678.402344 477.964844 683.292969 472.753906 C 687.074219 468.933594 691.144531 465.484375 695.539062 462.394531 C 704.796875 455.949219 718.128906 449.214844 729.484375 448.546875 C 740.6875 447.699219 745.871094 456.226562 740.769531 466.0625 C 735.867188 474.316406 726.527344 478.339844 719.695312 484.738281 C 715.042969 488.992188 711.105469 493.957031 707.695312 499.253906 C 703.945312 505.09375 700.945312 511.363281 697.425781 517.335938 C 695.734375 520.203125 693.949219 523.015625 692.113281 525.796875 C 691.597656 526.585938 690.417969 526.691406 689.695312 526.144531 Z M 689.695312 526.144531 " fill-opacity="1" fill-rule="nonzero"/><path fill="#ffffff" d="M 461.460938 562.980469 C 461.292969 564.105469 461.027344 565.179688 460.675781 566.230469 C 460.332031 566.25 459.988281 566.273438 459.644531 566.304688 C 459.300781 566.332031 458.957031 566.363281 458.617188 566.394531 C 458.273438 566.429688 457.925781 566.464844 457.589844 566.507812 C 457.3125 566.535156 457.039062 566.570312 456.769531 566.605469 C 456.703125 566.613281 456.632812 566.625 456.5625 566.632812 C 456.777344 566.144531 456.972656 565.652344 457.148438 565.15625 C 457.34375 564.539062 457.511719 563.921875 457.65625 563.289062 C 457.867188 563.261719 458.082031 563.238281 458.292969 563.21875 C 458.398438 563.203125 458.503906 563.191406 458.613281 563.1875 C 458.703125 563.179688 458.800781 563.167969 458.898438 563.160156 C 459.113281 563.140625 459.335938 563.121094 459.550781 563.101562 C 459.800781 563.078125 460.046875 563.058594 460.296875 563.042969 C 460.449219 563.035156 460.601562 563.023438 460.75 563.015625 C 460.988281 563.007812 461.222656 562.992188 461.460938 562.980469 Z M 461.460938 562.980469 " fill-opacity="1" fill-rule="nonzero"/><path fill="#ffffff" d="M 472.882812 563.457031 C 474.242188 563.683594 474.664062 565.617188 473.484375 566.363281 C 472.714844 566.890625 471.6875 566.472656 470.859375 566.417969 C 469.28125 566.25 467.707031 566.148438 466.136719 566.113281 C 465.921875 566.105469 465.703125 566.101562 465.488281 566.101562 C 464.515625 566.085938 463.542969 566.097656 462.574219 566.132812 C 462.152344 566.148438 461.726562 566.167969 461.304688 566.191406 C 461.089844 566.203125 460.882812 566.214844 460.671875 566.226562 C 460.328125 566.25 459.984375 566.273438 459.640625 566.304688 C 459.296875 566.332031 458.953125 566.363281 458.613281 566.394531 C 458.269531 566.429688 457.921875 566.464844 457.585938 566.507812 C 457.308594 566.535156 457.035156 566.570312 456.765625 566.605469 C 456.699219 566.613281 456.628906 566.625 456.5625 566.632812 C 456.367188 566.660156 456.171875 566.683594 455.976562 566.710938 C 455.796875 566.734375 455.617188 566.761719 455.4375 566.792969 C 454.996094 566.855469 454.554688 566.929688 454.117188 567.003906 C 453.894531 567.039062 453.679688 567.082031 453.457031 567.125 C 452.402344 567.3125 451.355469 567.53125 450.3125 567.773438 C 450.050781 567.835938 449.792969 567.898438 449.53125 567.960938 C 449.210938 568.042969 448.898438 568.117188 448.585938 568.199219 C 447.570312 568.460938 446.5625 568.75 445.5625 569.0625 C 445.425781 569.101562 445.285156 569.148438 445.144531 569.195312 C 444.863281 569.28125 444.582031 569.371094 444.296875 569.464844 C 443.988281 569.566406 443.679688 569.671875 443.367188 569.78125 C 443.023438 569.898438 442.695312 570.015625 442.367188 570.132812 C 442.011719 570.261719 441.675781 570.382812 441.339844 570.511719 C 441.046875 570.625 440.75 570.738281 440.453125 570.855469 C 440.082031 571 439.710938 571.148438 439.347656 571.300781 C 439.015625 571.433594 438.683594 571.574219 438.355469 571.714844 C 437.710938 571.992188 437.074219 572.273438 436.441406 572.570312 C 436.101562 572.726562 435.765625 572.886719 435.425781 573.046875 C 435.101562 573.199219 434.78125 573.355469 434.460938 573.515625 C 434.386719 573.550781 434.308594 573.59375 434.238281 573.628906 C 433.988281 573.75 433.746094 573.871094 433.503906 574 C 433.203125 574.152344 432.90625 574.308594 432.609375 574.464844 C 432.300781 574.628906 431.992188 574.796875 431.683594 574.964844 C 431.417969 575.109375 431.15625 575.253906 430.890625 575.402344 C 430.566406 575.585938 430.246094 575.769531 429.929688 575.953125 C 429.769531 576.046875 429.609375 576.140625 429.449219 576.238281 C 427.109375 577.65625 424.933594 579.230469 422.878906 580.8125 C 422.191406 581.269531 421.703125 582.113281 420.8125 582.175781 C 419.40625 582.285156 418.769531 580.464844 419.777344 579.554688 C 420.097656 579.269531 420.417969 578.984375 420.746094 578.707031 C 420.851562 578.617188 420.960938 578.527344 421.074219 578.433594 C 421.511719 578.070312 421.957031 577.714844 422.40625 577.367188 C 422.554688 577.25 422.707031 577.136719 422.859375 577.019531 C 423.011719 576.90625 423.160156 576.792969 423.3125 576.683594 C 423.664062 576.417969 424.027344 576.160156 424.390625 575.90625 C 424.582031 575.773438 424.777344 575.640625 424.972656 575.503906 C 425.875 574.886719 426.789062 574.292969 427.71875 573.71875 C 428.242188 573.390625 428.769531 573.070312 429.304688 572.753906 C 429.789062 572.472656 430.28125 572.203125 430.773438 571.933594 C 430.859375 571.882812 430.957031 571.835938 431.042969 571.789062 C 431.300781 571.652344 431.558594 571.515625 431.820312 571.378906 C 431.847656 571.367188 431.871094 571.351562 431.894531 571.339844 C 432.242188 571.160156 432.589844 570.976562 432.9375 570.800781 C 433.992188 570.269531 435.0625 569.757812 436.144531 569.273438 C 436.230469 569.238281 436.320312 569.195312 436.410156 569.15625 C 436.730469 569.011719 437.054688 568.875 437.378906 568.734375 C 437.722656 568.585938 438.0625 568.441406 438.410156 568.300781 C 438.480469 568.269531 438.554688 568.238281 438.628906 568.207031 C 438.964844 568.070312 439.308594 567.933594 439.648438 567.800781 C 440 567.660156 440.363281 567.523438 440.71875 567.390625 C 440.753906 567.375 440.792969 567.363281 440.832031 567.347656 C 441.164062 567.222656 441.503906 567.101562 441.84375 566.984375 C 441.890625 566.964844 441.933594 566.949219 441.984375 566.933594 C 442.324219 566.8125 442.664062 566.691406 443.007812 566.578125 C 443.082031 566.550781 443.152344 566.527344 443.230469 566.503906 C 443.570312 566.386719 443.917969 566.273438 444.261719 566.167969 C 444.648438 566.042969 445.042969 565.921875 445.433594 565.804688 C 445.820312 565.6875 446.214844 565.574219 446.605469 565.464844 C 447 565.351562 447.394531 565.242188 447.785156 565.140625 C 448.179688 565.03125 448.574219 564.933594 448.96875 564.839844 C 449.308594 564.753906 449.648438 564.675781 449.980469 564.597656 C 450.269531 564.53125 450.5625 564.464844 450.847656 564.40625 C 450.957031 564.382812 451.066406 564.359375 451.175781 564.335938 C 451.457031 564.277344 451.730469 564.21875 452.007812 564.164062 C 452.386719 564.089844 452.773438 564.015625 453.152344 563.949219 C 453.359375 563.914062 453.5625 563.875 453.761719 563.839844 C 453.882812 563.816406 454.007812 563.796875 454.136719 563.78125 C 454.449219 563.726562 454.761719 563.675781 455.070312 563.632812 C 455.40625 563.582031 455.746094 563.53125 456.085938 563.488281 C 456.425781 563.4375 456.769531 563.394531 457.109375 563.351562 C 457.289062 563.332031 457.460938 563.3125 457.644531 563.292969 C 457.855469 563.265625 458.070312 563.242188 458.28125 563.222656 C 458.386719 563.207031 458.496094 563.195312 458.601562 563.1875 C 458.691406 563.183594 458.789062 563.171875 458.886719 563.164062 C 459.101562 563.144531 459.324219 563.125 459.542969 563.105469 C 459.789062 563.082031 460.035156 563.0625 460.285156 563.046875 C 460.4375 563.035156 460.589844 563.027344 460.738281 563.019531 C 460.972656 563.003906 461.210938 562.992188 461.445312 562.976562 C 461.816406 562.957031 462.1875 562.9375 462.5625 562.925781 C 462.742188 562.921875 462.921875 562.914062 463.101562 562.910156 C 463.351562 562.902344 463.601562 562.898438 463.851562 562.894531 C 464.09375 562.890625 464.339844 562.886719 464.582031 562.886719 C 465.089844 562.886719 465.597656 562.890625 466.109375 562.90625 C 466.359375 562.910156 466.609375 562.917969 466.859375 562.929688 C 467.105469 562.9375 467.347656 562.949219 467.59375 562.960938 C 467.847656 562.972656 468.101562 562.988281 468.363281 563.003906 C 468.605469 563.019531 468.847656 563.035156 469.09375 563.050781 C 469.347656 563.070312 469.605469 563.089844 469.867188 563.113281 C 470.097656 563.132812 470.324219 563.15625 470.558594 563.179688 C 471.347656 563.257812 472.117188 563.347656 472.882812 563.457031 Z M 472.882812 563.457031 " fill-opacity="1" fill-rule="nonzero"/><path fill="#ffffff" d="M 487.496094 538.480469 C 485.140625 538.96875 482.753906 539.269531 480.371094 539.519531 C 478.019531 539.988281 476.023438 538.871094 477.21875 536.3125 C 478.28125 534.195312 481.554688 526.503906 484.4375 527.601562 C 486.898438 527.253906 489.414062 531.722656 490.851562 533.429688 C 493.308594 536.675781 490.496094 538.03125 487.496094 538.480469 Z M 487.496094 538.480469 " fill-opacity="1" fill-rule="nonzero"/><path fill="#ffffff" d="M 480.945312 536.140625 C 481.074219 536.125 481.203125 536.113281 481.328125 536.097656 C 481.191406 536.0625 481.058594 536.023438 480.929688 535.976562 C 480.898438 536.03125 480.871094 536.09375 480.839844 536.152344 C 480.875 536.148438 480.910156 536.144531 480.945312 536.140625 Z M 480.945312 536.140625 " fill-opacity="1" fill-rule="nonzero"/><path fill="#ffffff" d="M 492.902344 568.03125 C 493.113281 568.640625 492.164062 568.96875 491.953125 568.355469 C 491.761719 567.882812 491.574219 567.414062 491.386719 566.945312 C 491.066406 566.164062 490.75 565.382812 490.429688 564.609375 C 490.128906 563.878906 489.828125 563.148438 489.53125 562.421875 C 489.515625 562.378906 489.496094 562.332031 489.476562 562.289062 C 489.261719 561.75 489.039062 561.214844 488.828125 560.667969 C 488.585938 560.070312 488.347656 559.46875 488.113281 558.863281 C 487.894531 558.066406 487.300781 557.246094 487.46875 556.414062 C 487.644531 556.011719 488.28125 556.054688 488.394531 556.488281 C 488.652344 557.222656 488.921875 557.953125 489.199219 558.683594 C 489.347656 559.082031 489.503906 559.472656 489.65625 559.863281 C 489.980469 560.679688 490.3125 561.5 490.648438 562.308594 C 491.128906 563.492188 491.613281 564.667969 492.082031 565.855469 C 492.203125 566.167969 492.320312 566.476562 492.445312 566.789062 C 492.617188 567.269531 492.761719 567.644531 492.902344 568.03125 Z M 492.902344 568.03125 " fill-opacity="1" fill-rule="nonzero"/><path fill="#ffffff" d="M 499.941406 564.78125 C 499.699219 564.46875 499.453125 564.144531 499.226562 563.863281 C 497.285156 561.398438 495.429688 558.863281 493.652344 556.28125 C 493.429688 555.84375 493.9375 555.394531 494.339844 555.605469 C 494.585938 555.730469 494.734375 555.992188 494.894531 556.207031 C 496.800781 558.917969 498.808594 561.550781 500.765625 564.226562 C 501.136719 564.746094 500.320312 565.316406 499.941406 564.78125 Z M 499.941406 564.78125 " fill-opacity="1" fill-rule="nonzero"/><path fill="#ffffff" d="M 507.164062 561.90625 C 503.878906 558.808594 500.699219 555.488281 497.460938 552.472656 C 497.402344 551.679688 498.339844 551.804688 498.734375 552.226562 C 501.351562 554.472656 503.699219 557.054688 506.167969 559.414062 C 506.742188 559.988281 507.300781 560.535156 507.867188 561.089844 C 508.390625 561.542969 507.6875 562.371094 507.164062 561.90625 Z M 507.164062 561.90625 " fill-opacity="1" fill-rule="nonzero"/><path fill="#ffffff" d="M 505.535156 523.496094 C 505.382812 523.226562 505.542969 522.914062 505.796875 522.792969 C 509.210938 520.851562 512.476562 518.695312 515.875 516.742188 C 516.464844 516.417969 516.976562 517.332031 516.378906 517.664062 C 515.09375 518.460938 513.816406 519.265625 512.527344 520.0625 C 510.871094 521.089844 509.21875 522.097656 507.515625 523.039062 C 506.9375 523.222656 506.019531 524.167969 505.535156 523.496094 Z M 505.535156 523.496094 " fill-opacity="1" fill-rule="nonzero"/><path fill="#ffffff" d="M 504.140625 518.136719 C 502.871094 517.507812 506.613281 514.734375 507.105469 514.019531 C 508.394531 512.75 509.679688 511.476562 511.003906 510.238281 C 511.210938 510.039062 511.546875 510.050781 511.746094 510.257812 C 511.945312 510.472656 511.921875 510.796875 511.726562 511 C 510.597656 512.144531 509.472656 513.285156 508.328125 514.410156 C 507.148438 515.597656 505.886719 516.707031 504.753906 517.945312 C 504.636719 518.15625 504.359375 518.230469 504.140625 518.136719 Z M 504.140625 518.136719 " fill-opacity="1" fill-rule="nonzero"/><path fill="#ffffff" d="M 502.257812 514.898438 C 501.289062 514.417969 503.363281 512.175781 503.652344 511.472656 C 504.421875 510.285156 505.230469 509.082031 506.046875 507.949219 C 506.941406 506.6875 507.78125 505.511719 508.675781 504.277344 C 509.101562 503.738281 509.945312 504.414062 509.507812 504.953125 C 509.289062 505.261719 509.082031 505.542969 508.894531 505.8125 C 507.285156 508.125 505.6875 510.417969 504.140625 512.765625 C 503.730469 513.40625 503.285156 514.042969 502.882812 514.695312 C 502.769531 514.914062 502.476562 514.992188 502.257812 514.898438 Z M 502.257812 514.898438 " fill-opacity="1" fill-rule="nonzero"/><path fill="#ffffff" d="M 429.355469 563.476562 C 427.347656 561.671875 430.863281 559.335938 431.738281 561.890625 C 432.1875 563.257812 430.4375 564.417969 429.355469 563.476562 Z M 429.355469 563.476562 " fill-opacity="1" fill-rule="nonzero"/><path fill="#ffffff" d="M 451.722656 555.539062 C 451.566406 554.90625 451.960938 554.253906 452.59375 554.097656 C 453.226562 553.941406 453.875 554.339844 454.03125 554.972656 C 454.1875 555.601562 453.792969 556.253906 453.160156 556.410156 C 452.527344 556.566406 451.875 556.171875 451.722656 555.539062 Z M 451.722656 555.539062 " fill-opacity="1" fill-rule="nonzero"/><path fill="#ffffff" d="M 470.109375 501.007812 C 469.667969 501.058594 469.277344 500.816406 468.851562 500.726562 C 467.628906 500.199219 467.890625 498.253906 469.085938 497.871094 C 471.128906 497.097656 472.402344 500.617188 470.109375 501.007812 Z M 470.109375 501.007812 " fill-opacity="1" fill-rule="nonzero"/><path fill="#ffffff" d="M 487.886719 486.808594 C 487.707031 486.074219 488.167969 485.3125 488.898438 485.136719 C 489.628906 484.957031 490.390625 485.417969 490.570312 486.148438 C 490.75 486.878906 490.289062 487.640625 489.558594 487.820312 C 488.828125 488 488.066406 487.539062 487.886719 486.808594 Z M 487.886719 486.808594 " fill-opacity="1" fill-rule="nonzero"/><path fill="#ffffff" d="M 479.574219 514.863281 C 468.035156 514.863281 458.644531 505.472656 458.644531 493.925781 C 458.644531 482.382812 468.03125 472.988281 479.574219 472.988281 C 491.117188 472.988281 500.503906 482.378906 500.503906 493.925781 C 500.5 505.472656 491.113281 514.863281 479.574219 514.863281 Z M 479.574219 479.070312 C 471.382812 479.070312 464.722656 485.738281 464.722656 493.929688 C 464.722656 502.121094 471.382812 508.785156 479.574219 508.785156 C 487.761719 508.785156 494.421875 502.121094 494.421875 493.929688 C 494.417969 485.734375 487.757812 479.070312 479.574219 479.070312 Z M 479.574219 479.070312 " fill-opacity="1" fill-rule="nonzero"/><path fill="#ffffff" d="M 427.855469 575.957031 C 423.394531 571.976562 420.832031 566.253906 420.832031 560.277344 C 420.832031 548.6875 430.257812 539.257812 441.84375 539.257812 C 453.425781 539.257812 462.851562 548.6875 462.851562 560.277344 C 462.851562 562.082031 462.625 563.875 462.171875 565.609375 L 456.289062 564.070312 C 456.613281 562.839844 456.773438 561.558594 456.773438 560.277344 C 456.773438 552.039062 450.074219 545.339844 441.84375 545.339844 C 433.609375 545.339844 426.914062 552.042969 426.914062 560.277344 C 426.914062 564.527344 428.734375 568.589844 431.902344 571.421875 Z M 427.855469 575.957031 " fill-opacity="1" fill-rule="nonzero"/></svg>